HIERARCHY
ROOT SpineBase
{
  OFFSET 0.000000 0.000000 0.000000
  CHANNELS 6 Xposition Yposition Zposition Zrotation Xrotation Yrotation
  JOINT SpineMid
  {
    OFFSET -0.000000 38.266389 0.000000
    CHANNELS 3 Zrotation Xrotation Yrotation
    JOINT SpineShoulder
    {
      OFFSET 0.194633 28.366965 -0.670347
      CHANNELS 3 Zrotation Xrotation Yrotation
      JOINT Neck
      {
        OFFSET 0.157126 9.342900 -0.528301
        CHANNELS 3 Zrotation Xrotation Yrotation
        JOINT Head
        {
          OFFSET 5.162569 11.916689 2.195475
          CHANNELS 3 Zrotation Xrotation Yrotation
          End Site
          {
            OFFSET 0 0 0
          }
        }
      }
      JOINT ShoulderLeft
      {
        OFFSET -6.596115 -2.257765 -11.356436
        CHANNELS 3 Zrotation Xrotation Yrotation
        JOINT ElbowLeft
        {
          OFFSET -1.355401 -23.492654 -6.436809
          CHANNELS 3 Zrotation Xrotation Yrotation
          JOINT WristLeft
          {
            OFFSET 6.715458 -25.961593 -0.224417
            CHANNELS 3 Zrotation Xrotation Yrotation
            JOINT HandLeft
            {
              OFFSET 2.183574 -8.212938 3.604279
              CHANNELS 3 Zrotation Xrotation Yrotation
              JOINT HandTipLeft
              {
                OFFSET 4.795868 -7.382935 -1.380260
                CHANNELS 3 Zrotation Xrotation Yrotation
                End Site
                {
                  OFFSET 0 0 0
                }
              }
              JOINT ThumbLeft
              {
                OFFSET -4.837933 -2.373264 -0.409245
                CHANNELS 3 Zrotation Xrotation Yrotation
                End Site
                {
                  OFFSET 0 0 0
                }
              }
            }
          }
        }
      }
      JOINT ShoulderRight
      {
        OFFSET 2.738271 -2.503986 14.951192
        CHANNELS 3 Zrotation Xrotation Yrotation
        JOINT ElbowRight
        {
          OFFSET 7.534820 -24.955637 3.821294
          CHANNELS 3 Zrotation Xrotation Yrotation
          JOINT WristRight
          {
            OFFSET 13.125402 -19.014652 12.123894
            CHANNELS 3 Zrotation Xrotation Yrotation
            JOINT HandRight
            {
              OFFSET 4.305648 -4.165850 3.086356
              CHANNELS 3 Zrotation Xrotation Yrotation
              JOINT HandTipRight
              {
                OFFSET 5.766890 -4.223344 -0.741390
                CHANNELS 3 Zrotation Xrotation Yrotation
                End Site
                {
                  OFFSET 0 0 0
                }
              }
              JOINT ThumbRight
              {
                OFFSET 5.076998 5.302478 -0.602131
                CHANNELS 3 Zrotation Xrotation Yrotation
                End Site
                {
                  OFFSET 0 0 0
                }
              }
            }
          }
        }
      }
    }
  }
  JOINT HipLeft
  {
    OFFSET -2.123331 0.917294 -10.382006
    CHANNELS 3 Zrotation Xrotation Yrotation
    JOINT KneeLeft
    {
      OFFSET -2.297247 -32.656183 6.871523
      CHANNELS 3 Zrotation Xrotation Yrotation
      JOINT AnkleLeft
      {
        OFFSET -7.951757 -33.596279 4.047725
        CHANNELS 3 Zrotation Xrotation Yrotation
        JOINT FootLeft
        {
          OFFSET 4.064061 -7.301166 1.865150
          CHANNELS 3 Zrotation Xrotation Yrotation
          End Site
          {
            OFFSET 0 0 0
          }
        }
      }
    }
  }
  JOINT HipRight
  {
    OFFSET 3.792628 0.614328 3.758115
    CHANNELS 3 Zrotation Xrotation Yrotation
    JOINT KneeRight
    {
      OFFSET -1.774144 -38.647104 15.250180
      CHANNELS 3 Zrotation Xrotation Yrotation
      JOINT AnkleRight
      {
        OFFSET -8.086372 -31.470039 0.549788
        CHANNELS 3 Zrotation Xrotation Yrotation
        JOINT FootRight
        {
          OFFSET 6.131410 -6.595660 0.591302
          CHANNELS 3 Zrotation Xrotation Yrotation
          End Site
          {
            OFFSET 0 0 0
          }
        }
      }
    }
  }
}
MOTION
Frames: 16
Frame Time: 0.033333
-82.819186 78.391375 329.420727 -4.985543 2.252496 -60.404596 -0.653425 -0.107586 60.369569 -0.340178 0.201371 -0.226423 5.352878 9.111021 -4.530181 0.000000 0.000000 0.000000 6.478196 0.684945 0.126334 -4.313281 -4.294701 -0.001928 -4.147686 6.577926 -1.258580 -2.238941 5.021941 11.582752 0.000000 0.000000 0.000000 0.000000 0.000000 0.000000 -16.132035 -71.927062 -39.293980 -65.758270 35.530970 43.601684 8.202561 -10.775159 -20.692721 -27.972654 32.501274 116.181046 0.000000 0.000000 0.000000 0.000000 0.000000 0.000000 3.234960 7.149735 60.875764 -4.475244 -1.881853 -0.975307 1.150551 0.602701 1.254463 0.000000 0.000000 0.000000 5.372132 5.574585 61.283301 -5.564127 -2.086378 -0.629741 1.372058 -7.275856 -9.206627 0.000000 0.000000 0.000000
-82.978409 78.579152 329.259401 -5.407759 2.672002 -60.514149 -0.574480 -0.102501 60.494306 -0.330889 0.243687 -0.240544 5.797598 9.354967 -4.760851 0.000000 0.000000 0.000000 7.389819 0.807695 0.020483 -5.703412 -4.161530 0.259011 -3.605305 7.380796 -1.143111 -1.021989 3.168283 10.694438 0.000000 0.000000 0.000000 0.000000 0.000000 0.000000 -61.988793 -79.531641 -88.224706 -81.173489 32.104461 61.971112 -8.094832 1.089919 -13.768965 -9.795678 3.956688 126.759467 0.000000 0.000000 0.000000 0.000000 0.000000 0.000000 3.972192 7.447640 61.027780 -4.765246 -1.888726 -1.015092 2.068413 0.459453 1.309322 0.000000 0.000000 0.000000 6.365543 5.717809 61.451596 -5.229630 -1.817529 -0.645901 0.141881 -5.231915 -7.557209 0.000000 0.000000 0.000000
-83.047936 78.841441 329.082868 -5.740355 3.106377 -58.920060 -0.420548 -0.100962 58.916316 -0.282839 0.265217 -0.247617 5.896280 9.507373 -4.887582 0.000000 0.000000 0.000000 8.005881 1.001923 -0.066004 -6.542802 -3.977572 0.516972 -3.911299 7.892235 -1.294860 0.723219 1.835344 10.364736 0.000000 0.000000 0.000000 0.000000 0.000000 0.000000 -96.579418 -77.682442 -124.057575 -91.517227 27.597390 76.467768 -4.311260 1.214999 -8.288850 -7.678384 -6.852503 109.974392 0.000000 0.000000 0.000000 0.000000 0.000000 0.000000 4.526418 7.611285 59.455593 -4.950189 -2.272181 -1.023497 2.865089 0.477817 1.417382 0.000000 0.000000 0.000000 7.785858 4.992541 59.805798 -4.690273 0.650867 -0.927453 -4.808584 -8.318846 -9.778347 0.000000 0.000000 0.000000
-83.069631 79.150620 328.930048 -5.990948 3.471746 -61.603267 -0.243356 -0.120804 61.614364 -0.258558 0.264162 -0.253440 5.851552 9.531160 -4.912957 0.000000 0.000000 0.000000 8.419835 1.152430 -0.124599 -6.765594 -3.636439 0.781838 -4.426491 7.665124 -1.602535 1.659744 0.444462 9.715140 0.000000 0.000000 0.000000 0.000000 0.000000 0.000000 -87.068228 -76.019052 -112.588870 -84.209300 34.778529 73.196099 -8.118710 2.617338 -8.217590 -6.109974 -2.841526 101.515080 0.000000 0.000000 0.000000 0.000000 0.000000 0.000000 5.359485 7.431619 62.144255 -4.987955 -1.483221 -1.020080 3.351263 0.450842 1.450095 0.000000 0.000000 0.000000 7.795141 5.365658 62.446103 -3.851316 0.838890 -0.967315 -8.604907 -5.933269 -7.551246 0.000000 0.000000 0.000000
-83.032308 79.381747 328.794557 -6.145516 3.783206 -64.179516 -0.051867 -0.150031 64.201479 -0.226713 0.262732 -0.255164 5.787735 9.404715 -4.872971 0.000000 0.000000 0.000000 8.689611 1.330124 -0.180780 -6.600684 -3.373451 1.016121 -5.707080 6.621213 -2.401367 5.449422 -0.026353 9.102595 0.000000 0.000000 0.000000 0.000000 0.000000 0.000000 -72.319373 -76.668742 -97.097520 -76.943326 34.026742 60.382091 -6.189824 4.149454 -4.195645 -9.119215 0.290803 107.817004 0.000000 0.000000 0.000000 0.000000 0.000000 0.000000 6.283485 7.045429 64.691723 -4.840950 -0.445926 -0.985944 3.628399 0.223772 1.347899 0.000000 0.000000 0.000000 7.349877 6.009624 65.048038 -3.830496 -0.574284 -0.785425 -6.324475 -2.738095 -4.641818 0.000000 0.000000 0.000000
-82.968217 79.572045 328.701083 -6.226878 4.006554 -66.253038 0.071497 -0.134089 66.285169 -0.160775 0.282808 -0.250553 5.805192 8.979724 -4.767483 0.000000 0.000000 0.000000 8.769811 1.310625 -0.210460 -5.979556 -3.270052 1.156746 -6.739933 5.280331 -3.038472 9.145443 -0.383323 7.841741 0.000000 0.000000 0.000000 0.000000 0.000000 0.000000 -37.954724 -79.848625 -64.603641 -66.668020 31.167601 40.537061 -17.423235 6.142475 -7.629081 -13.305757 16.525744 143.381323 0.000000 0.000000 0.000000 0.000000 0.000000 0.000000 7.215499 6.590444 66.720008 -4.614258 0.653105 -0.944164 3.792358 0.230949 1.363778 0.000000 0.000000 0.000000 7.307626 6.425852 67.175033 -3.873214 -1.242402 -0.700350 -8.749499 -2.889811 -5.848919 0.000000 0.000000 0.000000
-82.875798 79.710667 328.689141 -6.177497 4.100292 -68.700487 0.107591 -0.094751 68.738401 -0.054855 0.289242 -0.238912 5.557881 8.375777 -4.554843 0.000000 0.000000 0.000000 8.591740 1.239908 -0.225870 -4.986437 -3.360057 1.205016 -7.408349 4.904120 -3.025534 13.943850 -1.999565 5.585986 0.000000 0.000000 0.000000 0.000000 0.000000 0.000000 12.661948 -76.904789 -16.597639 -34.214756 26.872406 10.758103 -29.795660 -0.614872 -22.337202 -126.391901 33.139536 -115.779411 0.000000 0.000000 0.000000 0.000000 0.000000 0.000000 7.839915 6.156372 69.107243 -4.330946 1.594219 -0.881978 4.010573 0.585701 1.544357 0.000000 0.000000 0.000000 6.585460 6.870471 69.657540 -3.860936 -2.230433 -0.600989 -12.237596 4.654551 1.869500 0.000000 0.000000 0.000000
-82.711191 79.862465 328.804046 -5.987558 4.047213 -70.885784 0.014209 -0.056662 70.923822 0.141201 0.255611 -0.217291 5.222404 7.988951 -4.448472 0.000000 0.000000 0.000000 8.284026 1.166291 -0.274699 -4.075595 -3.614765 1.201402 -7.897295 3.593063 -3.250104 16.671737 -2.249554 3.873972 0.000000 0.000000 0.000000 0.000000 0.000000 0.000000 35.506448 -66.799079 3.832197 14.306941 12.485924 -6.959524 -3.118184 -14.835846 -15.154768 85.903012 28.953379 -74.429559 0.000000 0.000000 0.000000 0.000000 0.000000 0.000000 8.119135 5.664516 71.223122 -3.991369 2.351521 -0.815684 4.250601 0.666287 1.610983 0.000000 0.000000 0.000000 5.267263 7.104642 71.838158 -3.784013 -3.381407 -0.488440 -11.861967 8.385277 6.009333 0.000000 0.000000 0.000000
-82.586140 79.919483 328.946644 -5.743887 3.963180 -72.721130 -0.078237 0.026371 72.760706 0.319658 0.238877 -0.192972 4.772045 7.545155 -4.319161 0.000000 0.000000 0.000000 7.777114 1.099041 -0.304751 -3.151168 -3.980068 1.140971 -8.256914 1.691554 -3.635168 17.171555 -0.889987 2.984818 0.000000 0.000000 0.000000 0.000000 0.000000 0.000000 45.844604 -53.056617 11.196024 27.946444 8.261792 -0.936289 3.572366 -22.180264 -8.824905 25.620305 21.530493 -53.743687 0.000000 0.000000 0.000000 0.000000 0.000000 0.000000 8.683939 5.236108 73.026088 -3.865777 3.347365 -0.802039 4.299597 1.638243 2.133653 0.000000 0.000000 0.000000 3.655952 7.170231 73.651113 -3.694554 -4.708196 -0.366046 -6.762904 8.480695 5.720296 0.000000 0.000000 0.000000
-82.419048 80.102098 329.108070 -5.412068 3.875064 -73.985056 -0.143082 0.098769 74.023687 0.481975 0.202102 -0.167367 4.246378 7.236663 -4.232168 0.000000 0.000000 0.000000 7.112210 1.134050 -0.330814 -2.453898 -4.567122 1.000424 -7.954211 0.585225 -3.552523 15.678186 0.530150 2.668914 0.000000 0.000000 0.000000 0.000000 0.000000 0.000000 49.305655 -38.135703 12.414119 27.862454 4.454103 7.674345 7.609349 -23.492131 -4.070089 5.126426 18.175858 -47.284066 0.000000 0.000000 0.000000 0.000000 0.000000 0.000000 9.145222 4.776153 74.282667 -3.797089 4.200207 -0.803427 4.430548 1.450255 2.079375 0.000000 0.000000 0.000000 1.922640 6.939762 74.836724 -3.230769 -6.480410 -0.086776 -3.974109 10.539350 7.193361 0.000000 0.000000 0.000000
-82.267283 80.323213 329.264297 -5.067881 3.792614 -74.629418 -0.204178 0.161258 74.666478 0.623389 0.153448 -0.143418 3.897252 6.673858 -4.066484 0.000000 0.000000 0.000000 6.286820 1.223799 -0.315821 -1.896173 -5.395398 0.750712 -7.681309 -0.448547 -3.582030 13.070709 3.552008 3.716945 0.000000 0.000000 0.000000 0.000000 0.000000 0.000000 51.034752 -25.290165 12.215140 22.745776 1.794161 14.235133 9.241937 -19.016987 -1.006954 -4.027093 11.967567 -43.947715 0.000000 0.000000 0.000000 0.000000 0.000000 0.000000 9.473562 4.425061 74.953193 -3.900296 4.829021 -0.831201 4.775466 0.641829 1.760545 0.000000 0.000000 0.000000 0.234947 6.448667 75.308027 -2.618740 -7.965837 0.211081 4.148305 7.083139 3.316643 0.000000 0.000000 0.000000
-82.139390 80.564518 329.474104 -4.739769 3.658819 -74.421443 -0.249275 0.222998 74.454824 0.713949 0.084587 -0.124259 3.631378 6.321564 -3.951990 0.000000 0.000000 0.000000 5.339286 1.388940 -0.252778 -1.422134 -5.418719 0.643107 -6.784606 0.252810 -2.947398 7.959918 2.549410 4.224616 0.000000 0.000000 0.000000 0.000000 0.000000 0.000000 53.102316 -16.346365 12.018207 12.294595 4.014033 16.769794 5.970533 -13.944809 -0.331560 -3.713545 4.423199 -40.712611 0.000000 0.000000 0.000000 0.000000 0.000000 0.000000 9.385851 4.324050 74.808848 -4.216872 4.952585 -0.890061 5.110848 -0.704298 1.170464 0.000000 0.000000 0.000000 -1.092212 6.182466 75.011286 -1.951972 -10.259954 0.705499 7.848492 5.308385 0.380378 0.000000 0.000000 0.000000
-82.090273 80.786632 329.637165 -4.493086 3.545219 -73.240330 -0.241777 0.275258 73.270139 0.731348 0.015988 -0.113862 3.531730 5.958523 -3.807991 0.000000 0.000000 0.000000 4.302533 1.538034 -0.109750 -0.709953 -5.394594 0.478550 -5.289456 0.669945 -2.145487 1.801937 3.725185 5.776411 0.000000 0.000000 0.000000 0.000000 0.000000 0.000000 50.908674 -11.582787 10.821862 -1.032589 10.626070 15.873300 0.960887 -10.856775 -1.381308 2.940887 -1.682472 -33.221152 0.000000 0.000000 0.000000 0.000000 0.000000 0.000000 8.943482 4.525245 73.721892 -4.728273 4.524536 -0.983574 5.379930 -2.142395 0.533730 0.000000 0.000000 0.000000 -1.528664 5.687222 73.639506 -1.773797 -9.176879 0.522767 10.638474 -5.211248 -6.230371 0.000000 0.000000 0.000000
-82.116748 81.002789 329.797353 -4.348007 3.423079 -72.582173 -0.232186 0.312836 72.608579 0.685209 -0.050389 -0.112508 3.490236 5.570582 -3.605918 0.000000 0.000000 0.000000 3.328120 1.633609 0.085645 0.112542 -5.306110 0.284358 -3.792029 1.353031 -1.278033 -3.659311 3.965947 6.604473 0.000000 0.000000 0.000000 0.000000 0.000000 0.000000 45.682894 -8.357338 9.151627 -6.409903 13.249296 15.332170 5.734512 -9.947087 3.004607 -4.134125 0.478085 -29.051329 0.000000 0.000000 0.000000 0.000000 0.000000 0.000000 9.126446 4.823477 73.165668 -5.308009 4.733418 -1.099338 5.538325 -3.292412 0.027866 0.000000 0.000000 0.000000 -2.399721 5.625660 72.909155 -1.561371 -9.183076 0.451665 14.718261 -14.736521 -11.636538 0.000000 0.000000 0.000000
-82.201670 81.083697 329.833829 -4.310494 3.367575 -71.272796 -0.162592 0.303787 71.295223 0.579586 -0.079970 -0.120335 3.761787 5.067631 -3.374023 0.000000 0.000000 0.000000 2.453095 1.643185 0.330473 0.103639 -5.031254 0.026294 -0.994375 1.304751 -0.485532 -6.663103 5.904279 7.486287 0.000000 0.000000 0.000000 0.000000 0.000000 0.000000 44.240083 -6.777810 8.630060 -7.945094 14.499696 15.557784 4.119403 -8.134326 3.168152 -11.397433 3.313397 -25.424073 0.000000 0.000000 0.000000 0.000000 0.000000 0.000000 9.376049 5.137669 71.955888 -5.826060 4.796402 -1.203816 5.480515 -4.262615 -0.462967 0.000000 0.000000 0.000000 -1.903085 5.548370 71.584568 -1.591378 -8.042138 0.257657 13.320671 -17.566861 -13.321896 0.000000 0.000000 0.000000
-82.230621 81.058395 329.815867 -4.239039 3.326851 -70.247893 -0.116922 0.282835 70.266443 0.525893 -0.109118 -0.122933 3.873192 4.608303 -3.159425 0.000000 0.000000 0.000000 1.592710 1.537833 0.553817 0.386370 -4.495672 -0.134284 1.076233 1.238083 0.155159 -8.592236 6.489018 7.380047 0.000000 0.000000 0.000000 0.000000 0.000000 0.000000 41.962003 -6.123563 8.035552 -6.760082 15.536085 16.196601 3.928322 -7.375218 3.891794 -13.863207 3.240983 -25.330103 0.000000 0.000000 0.000000 0.000000 0.000000 0.000000 9.460298 5.195463 70.986113 -5.981205 4.767352 -1.248866 5.061180 -4.628437 -0.750880 0.000000 0.000000 0.000000 -1.338340 5.328683 70.521146 -1.580963 -7.063405 0.148853 11.748943 -16.431559 -12.480420 0.000000 0.000000 0.000000
